<svg width="22" height="22" viewBox="0 0 22 22" fill="none" xmlns="http://www.w3.org/2000/svg">
<path d="M8.83688 0C7.54529 0 6.48361 1.05862 6.48012 2.34808H15.5196C15.5163 1.05862 14.4546 0 13.1628 0H8.83688ZM0.789643 3.1369C0.352872 3.13514 -0.0017422 3.48938 6.43936e-06 3.92571C0.00176287 4.35969 0.355201 4.71004 0.789643 4.70849H2.1985L3.13567 18.5838C3.26135 20.4218 4.69655 22 6.60777 22H15.3924C17.3034 22 18.7388 20.4218 18.8645 18.5838L19.8046 4.70849H21.2104C21.6448 4.71024 21.9984 4.35971 22 3.92571C22.0018 3.48939 21.6471 3.13515 21.2104 3.1369C13.6377 3.12598 8.1745 3.1369 0.789742 3.1369H0.789643ZM8.64004 7.85312C9.07681 7.85137 9.43142 8.2056 9.42967 8.64194V16.4952C9.4324 16.9323 9.0776 17.2873 8.64004 17.2857C8.20502 17.284 7.85395 16.9297 7.85644 16.4952V8.64194C7.85469 8.20796 8.20559 7.85472 8.64004 7.85312ZM13.3612 7.85312C13.7956 7.85488 14.1463 8.20794 14.1448 8.64194V16.4952C14.1473 16.9297 13.7962 17.284 13.3612 17.2857C12.923 17.2883 12.5674 16.9328 12.57 16.4952V8.64194C12.5682 8.20504 12.9238 7.85063 13.3612 7.85312Z" fill="white"/>
</svg>
