<svg width="19" height="22" viewBox="0 0 19 22" fill="none" xmlns="http://www.w3.org/2000/svg"><path d="M0 20.7488V19.1607C0 18.4681 0.621146 17.9109 1.39197 17.9109H16.9425C17.7126 17.9109 18.3333 18.4683 18.3333 19.1607V20.7488C18.3333 21.4418 17.7126 22 16.9425 22H1.39249C0.621662 22 0.000309294 21.4414 0.000309294 20.7488H0Z" fill="white"/><path d="M15.6339 0.519772C14.8398 -0.250244 13.4596 -0.153911 12.5408 0.737037L10.9375 2.29147L15.354 6.57421L16.9569 5.01977C17.8758 4.12886 17.975 2.7903 17.1796 2.01853L15.6339 0.519772Z" fill="white"/><path d="M9.99314 3.20728L2.45202 10.5203C2.05854 10.9023 1.81478 11.3673 1.72911 11.8341L1.16517 15.0746C1.01466 15.5643 1.64669 16.1465 2.15922 16.04L5.33927 15.5267C5.87779 15.4742 6.40285 15.2069 6.86885 14.8032L14.41 7.48971L9.99314 3.20728Z" fill="white"/></svg>
